<svg width="28" height="28" viewBox="0 0 28 28" fill="none" xmlns="http://www.w3.org/2000/svg">
<path d="M8.16675 6.99998C8.16675 6.69056 8.28966 6.39381 8.50846 6.17502C8.72725 5.95623 9.024 5.83331 9.33341 5.83331H18.6667C18.9762 5.83331 19.2729 5.95623 19.4917 6.17502C19.7105 6.39381 19.8334 6.69056 19.8334 6.99998V9.33331C19.8334 9.64273 19.7105 9.93948 19.4917 10.1583C19.2729 10.3771 18.9762 10.5 18.6667 10.5H9.33341C9.024 10.5 8.72725 10.3771 8.50846 10.1583C8.28966 9.93948 8.16675 9.64273 8.16675 9.33331V6.99998ZM9.91675 8.74998H18.0834V7.58331H9.91675V8.74998ZM4.66675 5.24998C4.66675 4.47643 4.97404 3.73457 5.52102 3.18758C6.068 2.6406 6.80987 2.33331 7.58341 2.33331H21.0001C21.3831 2.33331 21.7624 2.40875 22.1162 2.55533C22.4701 2.70191 22.7916 2.91675 23.0625 3.18758C23.3333 3.45842 23.5482 3.77995 23.6947 4.13382C23.8413 4.48769 23.9167 4.86696 23.9167 5.24998V21.875C23.9167 22.107 23.8246 22.3296 23.6605 22.4937C23.4964 22.6578 23.2738 22.75 23.0417 22.75H6.41675C6.41675 23.0594 6.53966 23.3561 6.75846 23.5749C6.97725 23.7937 7.274 23.9166 7.58341 23.9166H23.0417C23.2738 23.9166 23.4964 24.0088 23.6605 24.1729C23.8246 24.337 23.9167 24.5596 23.9167 24.7916C23.9167 25.0237 23.8246 25.2463 23.6605 25.4104C23.4964 25.5745 23.2738 25.6666 23.0417 25.6666H7.58341C6.80987 25.6666 6.068 25.3594 5.52102 24.8124C4.97404 24.2654 4.66675 23.5235 4.66675 22.75V5.24998ZM6.41675 21H22.1667V5.24998C22.1667 4.94056 22.0438 4.64381 21.825 4.42502C21.6062 4.20623 21.3095 4.08331 21.0001 4.08331H7.58341C7.274 4.08331 6.97725 4.20623 6.75846 4.42502C6.53966 4.64381 6.41675 4.94056 6.41675 5.24998V21Z" fill="black"/>
</svg>
