<svg width="30" height="30" viewBox="0 0 30 30" fill="none" xmlns="http://www.w3.org/2000/svg">
<path d="M8.125 2.49994C7.2962 2.49994 6.50134 2.82918 5.91529 3.41523C5.32924 4.00128 5 4.79614 5 5.62494V24.3749C5 25.2037 5.32924 25.9986 5.91529 26.5846C6.50134 27.1707 7.2962 27.4999 8.125 27.4999H24.6875C24.9361 27.4999 25.1746 27.4012 25.3504 27.2254C25.5262 27.0495 25.625 26.8111 25.625 26.5624C25.625 26.3138 25.5262 26.0753 25.3504 25.8995C25.1746 25.7237 24.9361 25.6249 24.6875 25.6249H8.125C7.79348 25.6249 7.47554 25.4932 7.24112 25.2588C7.0067 25.0244 6.875 24.7065 6.875 24.3749H24.6875C24.9361 24.3749 25.1746 24.2762 25.3504 24.1004C25.5262 23.9245 25.625 23.6861 25.625 23.4374V5.62494C25.625 5.21456 25.5442 4.8082 25.3871 4.42905C25.2301 4.04991 24.9999 3.70541 24.7097 3.41523C24.4195 3.12505 24.075 2.89486 23.6959 2.73782C23.3167 2.58077 22.9104 2.49994 22.5 2.49994H8.125ZM10 6.24994H20C20.3315 6.24994 20.6495 6.38164 20.8839 6.61606C21.1183 6.85048 21.25 7.16842 21.25 7.49994V8.74994C21.25 9.08146 21.1183 9.3994 20.8839 9.63382C20.6495 9.86824 20.3315 9.99994 20 9.99994H10C9.66848 9.99994 9.35054 9.86824 9.11612 9.63382C8.8817 9.3994 8.75 9.08146 8.75 8.74994V7.49994C8.75 7.16842 8.8817 6.85048 9.11612 6.61606C9.35054 6.38164 9.66848 6.24994 10 6.24994Z" fill="#1A998E"/>
</svg>
