<svg width="22" height="25" viewBox="0 0 22 25" fill="none" xmlns="http://www.w3.org/2000/svg">
<path d="M10.875 12.5844C12.4235 12.5467 13.7073 12.0223 14.7266 11.0114C15.7458 10.0004 16.2744 8.72701 16.3125 7.19111C16.2744 5.65521 15.7458 4.38178 14.7266 3.37083C13.7073 2.35988 12.4235 1.83553 10.875 1.79778C9.32652 1.83553 8.04267 2.35988 7.02344 3.37083C6.00421 4.38178 5.47556 5.65521 5.4375 7.19111C5.47556 8.72701 6.00421 10.0004 7.02344 11.0114C8.04267 12.0223 9.32652 12.5467 10.875 12.5844ZM10.875 14.3822C8.81721 14.3259 7.10862 13.6236 5.74925 12.2752C4.38987 10.9269 3.68179 9.23219 3.625 7.19111C3.68179 5.15003 4.38987 3.45533 5.74925 2.107C7.10862 0.758662 8.81721 0.0563304 10.875 0C12.9328 0.0563304 14.6414 0.758662 16.0007 2.107C17.3601 3.45533 18.0682 5.15003 18.125 7.19111C18.0682 9.23219 17.3601 10.9269 16.0007 12.2752C14.6414 13.6236 12.9328 14.3259 10.875 14.3822ZM19.9375 23.3711V20.6744C19.9188 19.9068 19.6544 19.2701 19.1445 18.7643C18.6346 18.2585 17.9927 17.9964 17.2188 17.9778H4.53125C3.75731 17.9964 3.11539 18.2585 2.60547 18.7643C2.09555 19.2701 1.83123 19.9068 1.8125 20.6744V23.3711C1.8125 23.6336 1.72761 23.849 1.55784 24.0174C1.38807 24.1858 1.17087 24.27 0.90625 24.27C0.641625 24.27 0.424427 24.1858 0.254656 24.0174C0.0848855 23.849 0 23.6336 0 23.3711V20.6744C0.0380625 19.401 0.481823 18.343 1.33128 17.5005C2.18074 16.6579 3.2474 16.2178 4.53125 16.18H17.2188C18.5026 16.2178 19.5693 16.6579 20.4187 17.5005C21.2682 18.343 21.7119 19.401 21.75 20.6744V23.3711C21.75 23.6336 21.6651 23.849 21.4953 24.0174C21.3256 24.1858 21.1084 24.27 20.8438 24.27C20.5791 24.27 20.3619 24.1858 20.1922 24.0174C20.0224 23.849 19.9375 23.6336 19.9375 23.3711Z" fill="#08080A"/>
</svg>
