<svg width="25" height="25" viewBox="0 0 25 25" fill="none" xmlns="http://www.w3.org/2000/svg">
<path d="M6.46768 12.8375H4.58434C3.98122 12.8375 3.49268 13.3271 3.49268 13.9292V21.0438C3.49268 21.6459 3.98226 22.1355 4.58434 22.1355H6.46872C7.07288 22.1355 7.56143 21.6459 7.56143 21.0428V13.9292C7.56115 13.6395 7.44594 13.3617 7.24107 13.1569C7.03621 12.952 6.75844 12.8368 6.46872 12.8365M13.4416 2.86462H11.5583C10.9541 2.86462 10.4656 3.35421 10.4656 3.95733V21.0417C10.4656 21.6459 10.9552 22.1344 11.5593 22.1344H13.4416C14.0458 22.1344 14.5343 21.6448 14.5343 21.0417V3.95837C14.5343 3.35421 14.0448 2.86567 13.4406 2.86567M20.4156 8.25733H18.5312C17.9271 8.25733 17.4385 8.74692 17.4385 9.35108V21.0417C17.4385 21.6459 17.9281 22.1344 18.5312 22.1344H20.4145C20.7043 22.1341 20.982 22.0189 21.1869 21.8141C21.3918 21.6092 21.507 21.3314 21.5073 21.0417V9.35004C21.5073 8.74587 21.0177 8.25733 20.4135 8.25733" stroke="black" stroke-width="1.3" stroke-linecap="round" stroke-linejoin="round"/>
</svg>
