<svg width="26" height="26" viewBox="0 0 26 26" fill="none" xmlns="http://www.w3.org/2000/svg">
<path d="M5.41675 15.7994H6.22925C6.22917 15.6413 6.18301 15.4868 6.09642 15.3546C6.00983 15.2224 5.88658 15.1183 5.74175 15.0551L5.41675 15.7994ZM20.5834 15.7994L20.2584 15.0551C20.1136 15.1183 19.9903 15.2224 19.9037 15.3546C19.8172 15.4868 19.771 15.6413 19.7709 15.7994H20.5834ZM17.0626 7.58335C17.0626 7.79884 17.1482 8.0055 17.3006 8.15788C17.4529 8.31025 17.6596 8.39585 17.8751 8.39585C18.0906 8.39585 18.2972 8.31025 18.4496 8.15788C18.602 8.0055 18.6876 7.79884 18.6876 7.58335H17.0626ZM7.31258 7.58335C7.31258 7.79884 7.39818 8.0055 7.55056 8.15788C7.70293 8.31025 7.90959 8.39585 8.12508 8.39585C8.34057 8.39585 8.54723 8.31025 8.69961 8.15788C8.85198 8.0055 8.93758 7.79884 8.93758 7.58335H7.31258ZM7.58342 4.60419C5.93134 4.60419 4.34692 5.26047 3.17873 6.42867C2.01053 7.59686 1.35425 9.18128 1.35425 10.8334H2.97925C2.97925 9.61225 3.46433 8.44116 4.32778 7.57772C5.19123 6.71427 6.36231 6.22919 7.58342 6.22919V4.60419ZM18.4167 6.22919C19.6378 6.22919 20.8089 6.71427 21.6724 7.57772C22.5358 8.44116 23.0209 9.61225 23.0209 10.8334H24.6459C24.6459 9.18128 23.9896 7.59686 22.8214 6.42867C21.6532 5.26047 20.0688 4.60419 18.4167 4.60419V6.22919ZM16.2501 23.0209H9.75008V24.6459H16.2501V23.0209ZM9.75008 23.0209C8.70575 23.0209 8.00375 23.0187 7.4805 22.9483C6.98108 22.8811 6.76658 22.7652 6.62575 22.6233L5.47742 23.7738C5.97033 24.2667 6.58458 24.4671 7.26491 24.5592C7.92141 24.648 8.75125 24.6459 9.75008 24.6459V23.0209ZM4.60425 19.5C4.60425 20.4989 4.60208 21.3287 4.69091 21.9852C4.78191 22.6655 4.98341 23.2798 5.47633 23.7727L6.62575 22.6244C6.48492 22.4835 6.369 22.269 6.30075 21.7685C6.23141 21.2464 6.22925 20.5444 6.22925 19.5H4.60425ZM19.7709 19.5C19.7709 20.5444 19.7687 21.2464 19.6983 21.7696C19.6312 22.269 19.5152 22.4835 19.3733 22.6244L20.5238 23.7727C21.0167 23.2798 21.2172 22.6655 21.3092 21.9852C21.3981 21.3287 21.3959 20.4989 21.3959 19.5H19.7709ZM16.2501 24.6459C17.2489 24.6459 18.0787 24.648 18.7352 24.5592C19.4156 24.4682 20.0309 24.2667 20.5238 23.7727L19.3744 22.6244C19.2336 22.7652 19.0191 22.8811 18.5186 22.9494C17.9964 23.0187 17.2944 23.0209 16.2501 23.0209V24.6459ZM7.58342 6.22919C7.81453 6.22919 8.0413 6.2458 8.26375 6.27902L8.501 4.67135C8.19711 4.62732 7.89048 4.60487 7.58342 4.60419V6.22919ZM13.0001 1.35419C11.8113 1.35386 10.6524 1.72602 9.68606 2.41836C8.71975 3.11069 7.99465 4.08841 7.61266 5.2141L9.151 5.73627C9.42389 4.93205 9.94196 4.23358 10.6324 3.73904C11.3228 3.2445 12.1508 2.97876 13.0001 2.97919V1.35419ZM7.61266 5.2141C7.4144 5.80305 7.31305 6.42027 7.31258 7.04169H8.93758C8.93758 6.58344 9.01341 6.14469 9.15208 5.73627L7.61266 5.2141ZM18.4167 4.60419C18.1055 4.60419 17.7996 4.62658 17.4992 4.67135L17.7375 6.27902C17.9623 6.24461 18.1894 6.22795 18.4167 6.22919V4.60419ZM13.0001 2.97919C13.8492 2.97899 14.677 3.24483 15.3671 3.73935C16.0573 4.23388 16.5752 4.93223 16.8481 5.73627L18.3864 5.2141C18.0045 4.08858 17.2796 3.11099 16.3135 2.41867C15.3474 1.72635 14.1886 1.35409 13.0001 1.35419V2.97919ZM16.8481 5.73627C16.9867 6.14469 17.0626 6.58344 17.0626 7.04169H18.6876C18.6876 6.4036 18.5814 5.78935 18.3864 5.2141L16.8481 5.73627ZM6.22925 19.5V15.7994H4.60425V19.5H6.22925ZM5.74175 15.0551C4.92037 14.6966 4.22146 14.1062 3.73076 13.3563C3.24005 12.6064 2.97887 11.7296 2.97925 10.8334H1.35425C1.35403 12.0456 1.70753 13.2316 2.37141 14.2459C3.03529 15.2602 3.98071 16.0587 5.09175 16.5436L5.74175 15.0551ZM19.7709 15.7994V19.5H21.3959V15.7994H19.7709ZM23.0209 10.8334C23.0213 11.7296 22.7601 12.6064 22.2694 13.3563C21.7787 14.1062 21.0798 14.6966 20.2584 15.0551L20.9084 16.5436C22.0195 16.0587 22.9649 15.2602 23.6288 14.2459C24.2926 13.2316 24.6461 12.0456 24.6459 10.8334H23.0209ZM17.0626 7.04169V7.58335H18.6876V7.04169H17.0626ZM7.31258 7.04169V7.58335H8.93758V7.04169H7.31258Z" fill="black"/>
<path d="M5.41675 19.5H20.5834" stroke="black" stroke-width="1.5" stroke-linecap="round" stroke-linejoin="round"/>
</svg>
