<svg width="28" height="28" viewBox="0 0 28 28" fill="none" xmlns="http://www.w3.org/2000/svg">
<path d="M22.1666 22.169V24.5C22.1665 24.7857 22.0616 25.0615 21.8717 25.2751C21.6819 25.4886 21.4202 25.625 21.1364 25.6585L20.9999 25.6666H6.9999C6.69048 25.6666 6.39374 25.5437 6.17495 25.3249C5.95615 25.1061 5.83324 24.8094 5.83324 24.5V22.1736C5.83324 21.8642 5.95615 21.5675 6.17495 21.3487C6.39374 21.1299 6.69048 21.007 6.9999 21.007L20.9999 21.0023C21.3093 21.0023 21.6061 21.1252 21.8249 21.344C22.0437 21.5628 22.1666 21.8596 22.1666 22.169ZM13.9999 2.33331C15.1107 2.3331 16.1985 2.65007 17.1354 3.24694C18.0722 3.84382 18.8192 4.69578 19.2884 5.70265L19.3584 5.86248L19.5171 5.85198C20.7984 5.79401 22.0632 6.16 23.1156 6.8933C24.168 7.6266 24.9493 8.68633 25.3387 9.90848L25.4122 10.157C25.7706 11.4797 25.6518 12.8864 25.0766 14.1304C24.5015 15.3743 23.5068 16.376 22.2669 16.9598L22.1654 17.003V18.669C22.1654 18.9784 22.0425 19.2751 21.8237 19.4939C21.6049 19.7127 21.3082 19.8356 20.9987 19.8356L6.99874 19.8403C6.71298 19.8403 6.43718 19.7354 6.22364 19.5455C6.0101 19.3556 5.87367 19.0939 5.84024 18.8101L5.83207 18.6736V17.0018L5.68857 16.9376C4.97067 16.5921 4.33115 16.1032 3.80946 15.5011C3.28776 14.8989 2.89495 14.1963 2.65524 13.4365L2.58057 13.1763C2.34214 12.2782 2.3217 11.3362 2.52094 10.4286C2.72018 9.52107 3.13335 8.67422 3.72604 7.95861C4.31873 7.243 5.0738 6.67933 5.92837 6.31452C6.78295 5.94972 7.7123 5.79434 8.63907 5.86131L8.71607 5.69565C9.16687 4.73155 9.87283 3.90915 10.7575 3.31751C11.6422 2.72587 12.6719 2.38753 13.7351 2.33915L13.9999 2.33331Z" fill="#1A998E"/>
</svg>
