<svg width="25" height="25" viewBox="0 0 25 25" fill="none" xmlns="http://www.w3.org/2000/svg">
<path d="M8.07808 13.9375V21.0521C8.07808 21.4775 7.90907 21.8856 7.60823 22.1864C7.30739 22.4872 6.89936 22.6563 6.47391 22.6563H4.58849C4.37696 22.6576 4.16724 22.6171 3.97141 22.5371C3.77558 22.4571 3.5975 22.3392 3.44744 22.1901C3.29737 22.041 3.17828 21.8637 3.09701 21.6684C3.01574 21.4731 2.97391 21.2636 2.97391 21.0521V13.9375C2.97253 13.7251 3.01334 13.5145 3.09399 13.318C3.17465 13.1215 3.29352 12.9429 3.44373 12.7927C3.59393 12.6425 3.77247 12.5237 3.96899 12.443C4.1655 12.3624 4.37608 12.3215 4.58849 12.3229H6.47391C6.68545 12.3229 6.89491 12.3647 7.09021 12.446C7.28552 12.5273 7.46283 12.6464 7.61193 12.7964C7.76102 12.9465 7.87897 13.1246 7.95897 13.3204C8.03897 13.5162 8.07945 13.726 8.07808 13.9375ZM15.0572 3.95833V21.0521C15.0572 21.2636 15.0154 21.4731 14.9341 21.6684C14.8529 21.8637 14.7338 22.041 14.5837 22.1901C14.4337 22.3392 14.2556 22.4571 14.0597 22.5371C13.8639 22.6171 13.6542 22.6576 13.4427 22.6563H11.5572C11.1308 22.6563 10.7217 22.4876 10.4192 22.187C10.1167 21.8865 9.94541 21.4785 9.94266 21.0521V3.95833C9.94539 3.53096 10.1164 3.12187 10.4186 2.81967C10.7208 2.51747 11.1299 2.34648 11.5572 2.34375H13.4427C13.8709 2.34375 14.2816 2.51386 14.5843 2.81665C14.8871 3.11944 15.0572 3.53012 15.0572 3.95833ZM22.026 9.35417V21.0521C22.026 21.4775 21.857 21.8856 21.5561 22.1864C21.2553 22.4872 20.8473 22.6563 20.4218 22.6563H18.5364C18.3249 22.6576 18.1152 22.6171 17.9193 22.5371C17.7235 22.4571 17.5454 22.3392 17.3954 22.1901C17.2453 22.041 17.1262 21.8637 17.0449 21.6684C16.9637 21.4731 16.9218 21.2636 16.9218 21.0521V9.35417C16.9218 9.14214 16.9636 8.93218 17.0447 8.73629C17.1259 8.5404 17.2448 8.36241 17.3947 8.21248C17.5447 8.06256 17.7226 7.94363 17.9185 7.86249C18.1144 7.78135 18.3244 7.73958 18.5364 7.73958H20.4635C20.8826 7.75311 21.28 7.92917 21.5717 8.23051C21.8633 8.53185 22.0262 8.93483 22.026 9.35417Z" fill="#1A998E"/>
</svg>
