<svg width="29" height="29" viewBox="0 0 29 29" fill="none" xmlns="http://www.w3.org/2000/svg">
<g clip-path="url(#clip0_1944_547)">
<path d="M8.15625 9.0625C8.19431 10.8563 8.81268 12.3525 10.0113 13.5512C11.21 14.7498 12.7062 15.3682 14.5 15.4062C16.2938 15.3682 17.79 14.7498 18.9887 13.5512C20.1873 12.3525 20.8057 10.8563 20.8437 9.0625C20.8057 7.26873 20.1873 5.77251 18.9887 4.57384C17.79 3.37518 16.2938 2.75681 14.5 2.71875C12.7062 2.75681 11.21 3.37518 10.0113 4.57384C8.81268 5.77251 8.19431 7.26873 8.15625 9.0625ZM23.5625 26.2812H4.53125C4.26662 26.2812 4.04943 26.1964 3.87966 26.0266C3.70989 25.8568 3.625 25.6396 3.625 25.375V22.6562C3.66306 21.3724 4.10682 20.3057 4.95628 19.4563C5.80574 18.6068 6.8724 18.1631 8.15625 18.125H20.8437C22.1276 18.1631 23.1943 18.6068 24.0437 19.4563C24.8932 20.3057 25.3369 21.3724 25.375 22.6562V25.375C25.375 25.6396 25.2901 25.8568 25.1203 26.0266C24.9506 26.1964 24.7334 26.2812 24.4687 26.2812H23.5625Z" fill="#1A998E"/>
</g>
<defs>
<clipPath id="clip0_1944_547">
<rect width="29" height="29" fill="white"/>
</clipPath>
</defs>
</svg>
